<?xml version="1.0" encoding="utf-8"?>
<!-- Generator: Adobe Illustrator 16.0.0, SVG Export Plug-In . SVG Version: 6.00 Build 0)  -->
<!DOCTYPE svg PUBLIC "-//W3C//DTD SVG 1.1//EN" "http://www.w3.org/Graphics/SVG/1.1/DTD/svg11.dtd">
<svg version="1.1" id="Layer_1" xmlns="http://www.w3.org/2000/svg" xmlns:xlink="http://www.w3.org/1999/xlink" x="0px" y="0px"
	 width="120px" height="120px" viewBox="0 0 120 120" enable-background="new 0 0 120 120" xml:space="preserve">
<g>
	<polygon opacity="0.8" fill="#A8C900" enable-background="new    " points="17.833,90.5 17.833,29.5 90.5,29.5 120,0 0,0 0,120 
		29.5,90.5 	"/>
	<polygon opacity="0.8" fill="#A8C900" enable-background="new    " points="23.833,84.5 35.5,84.5 57.847,62.153 23.833,38.272 	
		"/>
	<polygon opacity="0.8" fill="#A8C900" enable-background="new    " points="60,56.334 72.304,47.696 84.5,35.5 30.327,35.5 	"/>
</g>
<g>
	<polygon fill="#A8C900" points="89.675,35.5 84.5,35.5 72.304,47.696 	"/>
	<polygon fill="#A8C900" points="96.168,38.271 60,63.666 57.847,62.153 35.5,84.5 96.168,84.5 	"/>
	<polygon fill="#A8C900" points="90.5,29.5 102.168,29.5 102.168,90.5 29.5,90.5 0,120 120,120 120,0 	"/>
</g>
</svg>
