<?xml version="1.0" encoding="utf-8"?>
<!-- Generator: Adobe Illustrator 16.0.0, SVG Export Plug-In . SVG Version: 6.00 Build 0)  -->
<!DOCTYPE svg PUBLIC "-//W3C//DTD SVG 1.1//EN" "http://www.w3.org/Graphics/SVG/1.1/DTD/svg11.dtd">
<svg version="1.1" id="Layer_1" xmlns="http://www.w3.org/2000/svg" xmlns:xlink="http://www.w3.org/1999/xlink" x="0px" y="0px"
	 width="120px" height="120px" viewBox="0 0 120 120" enable-background="new 0 0 120 120" xml:space="preserve">
<path opacity="0.8" fill="#A8C900" enable-background="new    " d="M55.96,35.897v12.656L27.583,32.169L55.96,15.784v12.512
	c9.696,0.383,18.462,4.425,24.972,10.772L120,0H0v120l75.567-75.567C70.436,39.46,63.562,36.273,55.96,35.897z"/>
<path fill="#A8C900" d="M80.933,39.068c7.078,6.902,11.485,16.53,11.485,27.173c0,20.939-17.036,37.976-37.977,37.976H33.935v-7.595
	h20.507c16.753,0,30.381-13.629,30.381-30.381c0-8.549-3.553-16.282-9.255-21.808L0,120h120V0L80.933,39.068z"/>
</svg>
