<?xml version="1.0" encoding="utf-8"?>
<!-- Generator: Adobe Illustrator 16.0.0, SVG Export Plug-In . SVG Version: 6.00 Build 0)  -->
<!DOCTYPE svg PUBLIC "-//W3C//DTD SVG 1.1//EN" "http://www.w3.org/Graphics/SVG/1.1/DTD/svg11.dtd">
<svg version="1.1" id="Layer_1" xmlns="http://www.w3.org/2000/svg" xmlns:xlink="http://www.w3.org/1999/xlink" x="0px" y="0px"
	 width="120px" height="120px" viewBox="0 0 120 120" enable-background="new 0 0 120 120" xml:space="preserve">
<path fill="#FFFFFF" d="M70.457,49.543c1.451-0.58,3.201-0.945,5.363-0.945c8.834,0,15.18,5.77,15.18,18.169V90H78V68.316
	c0-5.426-2-9.127-6.855-9.127c-3.709,0-5.818,2.497-6.793,4.909C63.998,64.961,64,66.161,64,67.369V90H50.334
	c0,0,0.05-10.255,0.071-20.404L43,77v13H30L0,120h120V0L70.457,49.543z"/>
<path opacity="0.75" fill="#FFFFFF" enable-background="new    " d="M50.405,69.596C50.424,60.465,50.42,51.42,50.334,50H64v5.268
	c1.393-1.913,3.127-4.393,6.457-5.725L120,0H0v120l30-30h-1V50h14v27L50.405,69.596z M36.204,44h-0.09
	c-4.501,0-7.418-3.084-7.418-6.959c0-3.961,3.004-6.963,7.597-6.963c4.592,0,7.416,2.998,7.504,6.959
	C43.797,40.912,40.885,44,36.204,44z"/>
</svg>
