<?xml version="1.0" encoding="utf-8"?>
<!-- Generator: Adobe Illustrator 16.0.0, SVG Export Plug-In . SVG Version: 6.00 Build 0)  -->
<!DOCTYPE svg PUBLIC "-//W3C//DTD SVG 1.1//EN" "http://www.w3.org/Graphics/SVG/1.1/DTD/svg11.dtd">
<svg version="1.1" id="Layer_1" xmlns="http://www.w3.org/2000/svg" xmlns:xlink="http://www.w3.org/1999/xlink" x="0px" y="0px"
	 width="120px" height="120px" viewBox="0 0 120 120" enable-background="new 0 0 120 120" xml:space="preserve">
<path fill="#FFFFFF" d="M74.723,45.278l10.686,28.318L100.046,36h10.617L89.438,90h-8.483L66.8,53.2L38.243,81.757
	c2.116-0.17,4.053-0.668,5.757-1.521c2.136-1.066,4.034-2.637,5.641-4.668l1.279-1.613l7.494,6.303l-1.134,1.514
	c-2.466,3.289-5.489,5.744-8.983,7.299c-3.436,1.525-7.35,2.302-11.632,2.302c-2.47,0-4.859-0.304-7.142-0.894L0,120h120V0
	L74.723,45.278z"/>
<path opacity="0.75" fill="#FFFFFF" enable-background="new    " d="M60.186,36h11.035l3.502,9.278L120,0H0v120l29.522-29.521
	c-1.272-0.328-2.513-0.744-3.714-1.254c-3.35-1.42-6.302-3.418-8.772-5.938c-2.468-2.521-4.426-5.543-5.818-8.988
	c-1.391-3.438-2.097-7.246-2.097-11.319c0-3.921,0.679-7.651,2.017-11.085c1.341-3.445,3.261-6.483,5.706-9.031
	c2.442-2.543,5.378-4.579,8.727-6.052c3.364-1.478,7.097-2.227,11.093-2.227c3.638,0,7.188,0.667,10.555,1.982
	c3.479,1.361,6.43,3.608,8.773,6.681l1.242,1.628l-8.436,6.125l-1.18-1.585c-1.323-1.776-2.904-3.069-4.834-3.953
	c-1.95-0.892-4.01-1.344-6.121-1.344c-2.474,0-4.771,0.505-6.826,1.502c-2.093,1.015-3.924,2.396-5.444,4.105
	c-1.531,1.722-2.74,3.755-3.595,6.042c-0.858,2.292-1.292,4.719-1.292,7.21c0,2.683,0.435,5.203,1.292,7.492
	c0.854,2.286,2.049,4.292,3.552,5.963c1.49,1.659,3.302,2.99,5.386,3.959c2.065,0.961,4.396,1.445,6.928,1.445
	c0.541,0,1.061-0.038,1.579-0.079L66.8,53.2L60.186,36z"/>
</svg>
