<?xml version="1.0" encoding="utf-8"?>
<!-- Generator: Adobe Illustrator 16.0.0, SVG Export Plug-In . SVG Version: 6.00 Build 0)  -->
<!DOCTYPE svg PUBLIC "-//W3C//DTD SVG 1.1//EN" "http://www.w3.org/Graphics/SVG/1.1/DTD/svg11.dtd">
<svg version="1.1" id="Layer_1" xmlns="http://www.w3.org/2000/svg" xmlns:xlink="http://www.w3.org/1999/xlink" x="0px" y="0px"
	 width="120px" height="120px" viewBox="0 0 120 120" enable-background="new 0 0 120 120" xml:space="preserve">
<g opacity="0.75">
	<path fill="#FFFFFF" d="M50.455,47.747c0-2.605-1-4.187-3.008-5.019C45.722,42.15,43.515,42,40.837,42H30v12h12.265
		c2.434,0,4.404-0.424,5.92-1.349C49.699,51.727,50.455,50.104,50.455,47.747z"/>
	<path fill="#FFFFFF" d="M48.035,64.124c-1.327-0.613-3.2-1.124-5.6-1.124H30v15h12l9.448-9.448
		C51.075,66.486,49.945,64.992,48.035,64.124z"/>
	<path fill="#FFFFFF" d="M76,40v-6h10l34-34H0v120l32-32H17V32h27.544c6.818,0.111,11.65,2.086,14.504,5.965
		c1.714,2.379,2.562,5.233,2.562,8.551c0,3.424-0.859,6.163-2.587,8.244c-0.961,1.167-2.383,2.229-4.264,3.187
		c1.807,0.662,3.335,1.566,4.582,2.715L80,40H76z"/>
</g>
<g>
	<path fill="#FFFFFF" d="M93.807,55.776c-1.664-1.445-3.74-2.114-6.217-2.114c-2.697,0-4.777,0.689-6.258,2.213
		C79.844,57.398,78.916,60,78.537,62h18.072C96.412,59,95.48,57.218,93.807,55.776z"/>
	<path fill="#FFFFFF" d="M42.25,78c2.43,0,4.312-0.182,5.67-0.846c2.449-1.221,3.678-3.564,3.678-7.012
		c0-0.567-0.059-1.093-0.149-1.593L42,78H42.25z"/>
	<path fill="#FFFFFF" d="M86,34h13v6H80L59.339,60.661c0.72,0.663,1.347,1.405,1.876,2.233c1.455,2.254,2.182,4.988,2.182,8.201
		c0,3.322-0.818,6.303-2.487,8.938c-1.061,1.742-2.379,3.214-3.961,4.398c-1.783,1.368-3.895,2.309-6.32,2.812
		C48.193,87.746,45.558,88,42.72,88H32L0,120h120V0L86,34z M107.49,69H78.285c0.162,4,1.553,6.928,4.193,8.541
		c1.59,1.012,3.52,1.544,5.779,1.544c2.383,0,4.324-0.351,5.82-1.589C94.895,76.84,95.613,76,96.234,75h10.705
		c-0.281,2-1.57,4.561-3.885,7.016c-3.592,3.898-8.623,5.738-15.088,5.738c-5.34,0-10.047-1.709-14.131-4.996
		c-4.07-3.298-6.115-8.678-6.115-16.098c0-6.959,1.836-12.3,5.52-16.007c3.697-3.714,8.469-5.57,14.35-5.57
		c3.486,0,6.629,0.619,9.432,1.873c2.797,1.254,5.105,3.227,6.928,5.938c1.645,2.388,2.703,5.072,3.195,8.22
		C107.418,62.945,107.539,66,107.49,69z"/>
</g>
</svg>
