<?xml version="1.0" encoding="utf-8"?>
<!-- Generator: Adobe Illustrator 16.0.0, SVG Export Plug-In . SVG Version: 6.00 Build 0)  -->
<!DOCTYPE svg PUBLIC "-//W3C//DTD SVG 1.1//EN" "http://www.w3.org/Graphics/SVG/1.1/DTD/svg11.dtd">
<svg version="1.1" id="Layer_1" xmlns="http://www.w3.org/2000/svg" xmlns:xlink="http://www.w3.org/1999/xlink" x="0px" y="0px"
	 width="120px" height="120px" viewBox="0 0 120 120" enable-background="new 0 0 120 120" xml:space="preserve">
<g opacity="0.75">
	<path fill="#FFFFFF" d="M31.779,87.221c-3.492-3.49-6.274-7.611-8.268-12.25C21.513,70.327,20.5,65.291,20.5,60
		s1.013-10.327,3.011-14.971c1.993-4.635,4.775-8.757,8.268-12.25c3.49-3.49,7.612-6.272,12.25-8.268
		C48.676,22.513,53.713,21.5,59,21.5s10.324,1.013,14.971,3.011c4.637,1.995,8.758,4.776,12.25,8.268
		c0.168,0.167,0.324,0.342,0.488,0.512L120,0H0v120l32.291-32.291C32.122,87.545,31.946,87.389,31.779,87.221z"/>
	<path fill="#FFFFFF" d="M60.255,58.009l-0.744-1.489c-2.226,0.672-4.556,1.213-6.938,1.61c-2.642,0.44-5.372,0.812-8.115,1.106
		c-2.658,0.295-5.419,0.495-8.202,0.591c-2.491,0.088-5.045,0.137-7.604,0.146V60c0,1.891,0.167,3.777,0.497,5.609
		c0.327,1.826,0.825,3.556,1.479,5.143c0.665,1.712,1.477,3.359,2.42,4.916c0.707,1.167,1.475,2.279,2.294,3.321
		c1.198-1.71,2.541-3.435,4.001-5.138c1.783-2.082,3.791-4.088,5.965-5.967c2.301-1.9,4.816-3.611,7.492-5.098
		c2.303-1.279,4.894-2.383,7.709-3.299l0.228-0.226C60.531,58.852,60.369,58.43,60.255,58.009z"/>
	<path fill="#FFFFFF" d="M50.095,40.021c-0.956-1.432-1.903-2.817-2.826-4.129c-0.73-1.036-1.414-1.996-2.052-2.881
		c-1.795,0.952-3.478,2.039-5.01,3.24c-1.733,1.358-3.328,2.953-4.739,4.74c-1.428,1.714-2.668,3.599-3.703,5.622
		c-0.843,1.647-1.504,3.393-1.973,5.205c2.022-0.014,4.067-0.062,6.097-0.141c2.464-0.096,4.889-0.243,7.207-0.437
		c2.392-0.288,4.792-0.63,7.097-1.015c1.839-0.306,3.642-0.679,5.377-1.113c-0.843-1.445-1.669-2.844-2.481-4.198
		C52.066,43.211,51.068,41.58,50.095,40.021z"/>
	<path fill="#FFFFFF" d="M69.605,31.628c-1.674-0.65-3.414-1.15-5.152-1.48c-1.74-0.329-3.575-0.495-5.453-0.495
		c-0.647,0-1.26,0.023-1.822,0.07c-0.566,0.048-1.184,0.12-1.846,0.213l-1.958,0.327c0.531,0.779,1.091,1.589,1.683,2.429
		c0.928,1.319,1.899,2.789,2.887,4.367c0.985,1.578,1.975,3.211,2.943,4.857c0.848,1.441,1.729,2.954,2.65,4.539
		c1.248-0.501,2.468-1.068,3.635-1.691c1.416-0.755,2.809-1.619,4.139-2.568c1.344-0.865,2.599-1.86,3.771-2.984
		c0.944-0.907,1.853-1.854,2.71-2.822c-1.098-0.877-2.264-1.685-3.48-2.409C72.796,33.082,71.213,32.291,69.605,31.628z"/>
</g>
<g>
	<path fill="#FFFFFF" d="M88.709,54.195c-0.332-1.606-0.785-3.183-1.35-4.684c-0.479-1.432-1.116-2.851-1.91-4.253
		c-0.596-1.049-1.235-2.057-1.912-3.009c-1.041,1.141-2.12,2.21-3.217,3.189c-1.387,1.238-2.842,2.417-4.323,3.503
		c-1.499,1.101-3.097,2.09-4.747,2.939c-1.333,0.687-2.695,1.331-4.062,1.918c0.064,0.152,0.131,0.301,0.195,0.447
		c0.189,0.426,0.377,0.827,0.566,1.203c0.273,0.454,0.539,0.958,0.752,1.434c0.098,0.219,0.193,0.444,0.292,0.675
		c1.346-0.222,2.739-0.376,4.155-0.459c1.688-0.099,3.482-0.148,5.332-0.148c1.875,0,3.83,0.1,5.812,0.298
		c1.586,0.16,3.223,0.385,4.878,0.671C89.111,56.653,88.957,55.405,88.709,54.195z"/>
	<path fill="#FFFFFF" d="M49.044,88.636c1.633,0.575,3.278,1.005,4.924,1.287c1.645,0.282,3.337,0.425,5.031,0.425
		c1.038,0,2.065-0.048,3.056-0.142c0.986-0.095,1.963-0.235,2.899-0.425c0.944-0.188,1.899-0.428,2.84-0.711
		c0.679-0.203,1.338-0.434,1.968-0.687c-0.269-1.762-0.595-3.522-0.973-5.245c-0.436-1.981-0.9-3.97-1.385-5.904
		c-0.562-1.863-1.174-3.773-1.809-5.633c-0.531-1.55-1.078-3.101-1.644-4.651c-2.511,0.808-4.852,1.795-6.969,2.938
		c-2.367,1.276-4.575,2.789-6.562,4.492c-1.906,1.621-3.666,3.381-5.234,5.233c-1.368,1.616-2.66,3.307-3.85,5.032
		c1.091,0.746,2.218,1.447,3.36,2.095C46.092,87.533,47.554,88.17,49.044,88.636z"/>
	<path fill="#FFFFFF" d="M74.999,65.174c-0.979,0.034-1.938,0.102-2.871,0.199c0.501,1.293,0.962,2.607,1.376,3.921
		c0.534,1.706,1.096,3.433,1.68,5.185c0.508,1.92,0.953,3.781,1.348,5.599c0.283,1.313,0.566,2.639,0.851,3.976
		c1.16-0.898,2.272-1.882,3.324-2.933c1.399-1.399,2.632-2.964,3.662-4.647c1.147-1.725,2.103-3.535,2.854-5.418
		c0.629-1.574,1.1-3.236,1.398-4.951c-1.393-0.219-2.792-0.408-4.174-0.567c-1.674-0.19-3.297-0.337-4.824-0.433
		C78.021,65.102,76.467,65.126,74.999,65.174z"/>
	<path fill="#FFFFFF" d="M86.709,33.292c3.259,3.382,5.88,7.323,7.779,11.738C96.486,49.675,97.5,54.712,97.5,60
		s-1.014,10.325-3.012,14.971c-1.995,4.639-4.777,8.76-8.268,12.25c-3.492,3.492-7.613,6.274-12.25,8.27
		C69.325,97.486,64.288,98.5,59,98.5s-10.325-1.014-14.97-3.011c-4.417-1.9-8.359-4.521-11.739-7.78L0,120h120V0L86.709,33.292z"/>
	<path fill="#FFFFFF" d="M60.8,59.39l-0.058-0.115c-0.002-0.004-0.004-0.008-0.006-0.012l-0.227,0.226
		C60.607,59.458,60.701,59.421,60.8,59.39z"/>
</g>
</svg>
