<?xml version="1.0" encoding="utf-8"?>
<!-- Generator: Adobe Illustrator 16.0.0, SVG Export Plug-In . SVG Version: 6.00 Build 0)  -->
<!DOCTYPE svg PUBLIC "-//W3C//DTD SVG 1.1//EN" "http://www.w3.org/Graphics/SVG/1.1/DTD/svg11.dtd">
<svg version="1.1" id="Layer_1" xmlns="http://www.w3.org/2000/svg" xmlns:xlink="http://www.w3.org/1999/xlink" x="0px" y="0px"
	 width="120px" height="120px" viewBox="0 0 120 120" enable-background="new 0 0 120 120" xml:space="preserve">
<g>
	<path opacity="0.8" fill="#A8C900" enable-background="new    " d="M23.34,47.093c4.275,2.373,18.573,10.31,28.391,15.76V60H60
		l19.542-19.542H23.34V47.093z"/>
	<path opacity="0.8" fill="#A8C900" enable-background="new    " d="M17.916,95.236V35.034h27.389v-2.423
		c0-4.327,3.521-7.848,7.848-7.848h13.695c4.327,0,7.847,3.521,7.847,7.848v2.423h10.271L120,0H0v120l24.764-24.764H17.916z"/>
	<polygon opacity="0.8" fill="#A8C900" enable-background="new    " points="23.34,89.812 30.188,89.812 50.8,69.199 23.34,53.956 	
		"/>
	<path opacity="0.8" fill="#A8C900" enable-background="new    " d="M66.848,30.187H53.153c-1.336,0-2.424,1.087-2.424,2.424v2.423
		h18.542v-2.423C69.271,31.274,68.185,30.187,66.848,30.187z"/>
</g>
<g>
	<polygon fill="#A8C900" enable-background="new    " points="96.66,40.458 79.542,40.458 60,60 68.27,60 68.27,62.854 
		96.66,47.093 	"/>
	<polygon fill="#A8C900" enable-background="new    " points="96.66,53.956 68.27,69.716 68.27,75.125 51.731,75.125 51.731,69.716 
		50.8,69.199 30.188,89.812 96.66,89.812 	"/>
	<polygon fill="#A8C900" enable-background="new    " points="84.966,35.034 102.084,35.034 102.084,95.236 24.764,95.236 0,120 
		120,120 120,0 	"/>
</g>
</svg>
