<?xml version="1.0" encoding="utf-8"?>
<!-- Generator: Adobe Illustrator 16.0.0, SVG Export Plug-In . SVG Version: 6.00 Build 0)  -->
<!DOCTYPE svg PUBLIC "-//W3C//DTD SVG 1.1//EN" "http://www.w3.org/Graphics/SVG/1.1/DTD/svg11.dtd">
<svg version="1.1" id="Layer_1" xmlns="http://www.w3.org/2000/svg" xmlns:xlink="http://www.w3.org/1999/xlink" x="0px" y="0px"
	 width="120px" height="120px" viewBox="0 0 120 120" enable-background="new 0 0 120 120" xml:space="preserve">
<g>
	<polygon opacity="0.8" fill="#A8C900" enable-background="new    " points="79.758,34.125 70.375,24.742 70.375,34.125 	"/>
	<path opacity="0.8" fill="#A8C900" enable-background="new    " d="M30,85.427c0.453,1.035,0.982,2.034,1.576,2.997l3.646-3.646
		C33.809,82.135,33,79.121,33,75.918c0-10.431,8.486-18.917,18.918-18.917c3.202,0,6.218,0.806,8.865,2.218l19.092-19.094h-15.5
		V20.5H36v37.586c-2.551,2.28-4.609,5.097-6,8.271V14.5h38.617l18.441,18.441L120,0H0v120l30-30V85.427z"/>
	<path opacity="0.8" fill="#A8C900" enable-background="new    " d="M51.918,63.001C44.795,63.001,39,68.796,39,75.918
		c0,1.518,0.277,2.969,0.76,4.322l16.48-16.479C54.886,63.277,53.436,63.001,51.918,63.001z"/>
</g>
<g>
	<path fill="#A8C900" d="M87.059,32.941L90,35.883v69.618H68.064v-6H84V40.125h-4.125L60.783,59.219
		c5.971,3.184,10.049,9.472,10.049,16.699c0,6.26-3.068,11.803-7.768,15.248v25.214l-11.148-8.895l-11.148,8.895V91.166
		c-2.293-1.682-4.195-3.867-5.545-6.389l-3.646,3.646c1.15,1.869,2.555,3.59,4.191,5.095v11.982H30V90L0,120h120V0L87.059,32.941z"
		/>
	<path fill="#A8C900" d="M64.832,75.918c0-5.604-3.594-10.373-8.592-12.157L39.76,80.24c1.784,5,6.553,8.595,12.158,8.595
		C59.039,88.835,64.832,83.04,64.832,75.918z"/>
	<path fill="#A8C900" d="M46.768,94.104v9.812l5.148-4.107l5.148,4.107v-9.812c-1.639,0.465-3.361,0.73-5.146,0.73
		C50.131,94.835,48.408,94.569,46.768,94.104z"/>
</g>
</svg>
